<svg width="182" height="67" xmlns="http://www.w3.org/2000/svg"><g fill="none" fill-rule="evenodd"><path d="M28.159 28.135L28 28.25l.142.135c1.28 1.206 2.543 3.096 2.555 3.116l.004.005c1.048 1.438 1.969 3.342 2.462 5.094l.114.401L41 19l-12.841 9.135" fill="#D7D5CD"/><path d="M60.99 32.626L54.28 17.269l-7.037 15.357H60.99zm2.786 6.405H44.399L39.357 50H32L54.395 2 76 50h-7.476l-4.748-10.969zM79 51h7V1h-7zM113.263 36.284c0-2.743-.743-4.977-2.226-6.702-1.504-1.743-3.398-2.616-5.683-2.616-2.422 0-4.384.843-5.888 2.528-1.504 1.686-2.256 3.9-2.256 6.643 0 2.685.752 4.898 2.256 6.643 1.483 1.704 3.436 2.557 5.858 2.557 2.285 0 4.17-.863 5.654-2.586 1.523-1.725 2.285-3.88 2.285-6.467M97.59 66H91V21.794h6.59v3.115c2.598-2.606 5.546-3.909 8.849-3.909 3.924 0 7.157 1.45 9.696 4.35C118.71 28.23 120 31.864 120 36.255c0 4.29-1.278 7.867-3.837 10.727-2.538 2.84-5.742 4.261-9.608 4.261-3.34 0-6.328-1.342-8.964-4.026V66M124 1h6.713v23.565c2.385-2.131 5.02-3.197 7.904-3.197 3.282 0 5.908 1.056 7.878 3.168 1.67 1.835 2.505 4.766 2.505 8.791V51h-6.712V33.948c0-2.309-.413-3.98-1.239-5.017-.826-1.036-2.153-1.554-3.982-1.554-2.347 0-3.997.721-4.952 2.161-.935 1.461-1.402 3.967-1.402 7.52V51H124V1M158.737 35.897c0 2.722.734 4.938 2.198 6.648 1.503 1.73 3.397 2.593 5.682 2.593 2.442 0 4.413-.834 5.917-2.505 1.504-1.73 2.256-3.927 2.256-6.59 0-2.662-.752-4.858-2.256-6.589-1.504-1.69-3.457-2.535-5.858-2.535-2.266 0-4.16.854-5.684 2.565-1.505 1.73-2.255 3.868-2.255 6.413m15.642-14.11H181v28.395h-6.621v-2.974C171.665 49.736 168.746 51 165.62 51c-3.945 0-7.207-1.42-9.784-4.257C153.28 43.847 152 40.232 152 35.897c0-4.256 1.28-7.803 3.837-10.641 2.558-2.838 5.76-4.256 9.608-4.256 3.32 0 6.297 1.361 8.934 4.082v-3.295M21.234 28.56l.002.003L43.96 12.826 49 2 28.348 16.316c-.065-7.477-6.169-13.542-13.67-13.542C7.135 2.774 1 8.901 1 16.434c0 3.984 2.216 8.132 5.629 10.742 1.86-1.244 3.603-2.406 5.089-3.393-2.904-2.103-4.694-4.863-4.694-7.35 0-4.213 3.433-7.64 7.654-7.64 4.218 0 7.65 3.427 7.65 7.64 0 3.203-2.044 5.369-3.757 6.623-.235.17-1.008.72-2.054 1.46l-9.255 6.416c-3.745 2.583-6.07 6.955-6.07 11.41C1.192 49.874 7.327 56 14.87 56c7.54 0 13.675-6.126 13.675-13.658 0-2.46-.645-4.845-1.866-6.89-1.213-2.036-2.41-3.159-3.58-4.113a2228.93 2228.93 0 0 1-5.136 3.43c3.045 2.1 4.629 4.706 4.556 7.56-.108 4.292-3.468 7.655-7.65 7.655-4.22 0-7.652-3.428-7.652-7.642 0-2.469 1.379-5.016 3.512-6.488l9.177-6.369 1.328-.925" fill="#828382"/></g></svg>