<?xml version="1.0" encoding="UTF-8"?>
<svg width="182px" height="67px" viewBox="0 0 182 67" version="1.1" xmlns="http://www.w3.org/2000/svg" xmlns:xlink="http://www.w3.org/1999/xlink">
    <!-- Generator: Sketch 54.1 (76490) - https://sketchapp.com -->
    <title>logobig</title>
    <desc>Created with Sketch.</desc>
    <g id="logobig" stroke="none" stroke-width="1" fill="none" fill-rule="evenodd">
        <path d="M28.1590067,28.1352305 L28,28.2489471 L28.1416605,28.3841776 C29.422387,29.5899829 30.6848036,31.4801366 30.6973314,31.4996016 L30.7011861,31.504724 C31.7487027,32.9430848 32.6699778,34.8465566 33.1633803,36.5994308 L33.2770941,37 L41,19 L28.1590067,28.1352305" id="Fill-3" fill="#D7D5CD"></path>
        <path d="M60.9900695,32.6259006 L54.2790467,17.2693491 L47.2423039,32.6259006 L60.9900695,32.6259006 Z M63.775571,39.0313177 L44.3992056,39.0313177 L39.3574975,50 L32,50 L54.3952334,2 L76,50 L68.5243297,50 L63.775571,39.0313177 L63.775571,39.0313177 Z" id="Fill-4" fill="#828382"></path>
        <polygon id="Fill-5" fill="#828382" points="79 51 86 51 86 1 79 1"></polygon>
        <path d="M113.262576,36.2844467 C113.262576,33.5412121 112.520259,31.3067953 111.036616,29.5821919 C109.533126,27.8386697 107.638628,26.9664107 105.354117,26.9664107 C102.931661,26.9664107 100.96968,27.8087978 99.4661899,29.493572 C97.9617069,31.1803377 97.2104579,33.3938442 97.2104579,36.1370788 C97.2104579,38.8215653 97.9617069,41.0350718 99.4661899,42.7795898 C100.94884,44.4842785 102.901889,45.3366229 105.324345,45.3366229 C107.608856,45.3366229 109.49343,44.4743212 110.978064,42.7507136 C112.501403,41.0261102 113.262576,38.870356 113.262576,36.2844467 M97.5905482,66 L91,66 L91,21.7935964 L97.5905482,21.7935964 L97.5905482,24.9092337 C100.187667,22.3034098 103.136096,21 106.438813,21 C110.362775,21 113.596024,22.449782 116.13459,25.3493461 C118.710869,28.2299914 120,31.8653995 120,36.2555706 C120,40.5461687 118.721785,44.1228288 116.16337,46.9825637 C113.624803,49.8233797 110.421326,51.2442856 106.554924,51.2442856 C103.214496,51.2442856 100.227363,49.9020424 97.5905482,47.2175558 L97.5905482,66" id="Fill-6" fill="#828382"></path>
        <path d="M124,1 L130.712888,1 L130.712888,24.5648668 C133.098076,22.4337291 135.73391,21.3676589 138.617359,21.3676589 C141.899014,21.3676589 144.524741,22.4237003 146.494542,24.5357831 C148.164174,26.3710687 149,29.3015083 149,33.3271021 L149,51 L142.288123,51 L142.288123,33.9478899 C142.288123,31.639241 141.874757,29.9674262 141.049038,28.9314426 C140.223318,27.8954589 138.896305,27.3769657 137.066987,27.3769657 C134.720205,27.3769657 133.069777,28.0980424 132.114691,29.53819 C131.179819,30.9993983 130.712888,33.5046133 130.712888,37.0578466 L130.712888,51 L124,51 L124,1" id="Fill-7" fill="#828382"></path>
        <path d="M158.737193,35.8967901 C158.737193,38.6187654 159.470554,40.8350617 160.935291,42.5446914 C162.437737,44.2750617 164.33217,45.1382716 166.616603,45.1382716 C169.058824,45.1382716 171.029668,44.3037037 172.5341,42.6325926 C174.037539,40.9022222 174.789755,38.705679 174.789755,36.042963 C174.789755,33.3812346 174.037539,31.1846914 172.5341,29.454321 C171.029668,27.7634568 169.076686,26.9190123 166.676146,26.9190123 C164.409575,26.9190123 162.516135,27.7733333 160.991856,29.4839506 C159.487424,31.2133333 158.737193,33.3516049 158.737193,35.8967901 M174.378914,21.7871605 L181,21.7871605 L181,50.1822222 L174.378914,50.1822222 L174.378914,47.2083951 C171.664785,49.7358025 168.746227,51 165.621257,51 C161.675598,51 158.413681,49.5807407 155.837491,46.7432099 C153.279164,43.8474074 152,40.2316049 152,35.8967901 C152,31.6409877 153.279164,28.094321 155.837491,25.2558025 C158.394826,22.4182716 161.597201,21 165.444616,21 C168.765082,21 171.742189,22.3609877 174.378914,25.0819753 L174.378914,21.7871605" id="Fill-8" fill="#828382"></path>
        <path d="M21.2343244,28.5600373 L21.236343,28.5630611 L43.9585769,12.8262063 L49,2 L28.3478279,16.3156696 C28.2832331,8.83882408 22.1790235,2.77409239 14.6779511,2.77409239 C7.13549771,2.77409239 1,8.90131591 1,16.4335978 C1,20.4179561 3.21640944,24.5655996 6.62883216,27.1761456 C8.48896085,25.9323565 10.2320114,24.77021 11.7176921,23.7834438 C8.81395349,21.679888 7.02447538,18.920168 7.02447538,16.4335978 C7.02447538,12.2204386 10.457084,8.79245917 14.6779511,8.79245917 C18.8957904,8.79245917 22.3273897,12.2204386 22.3273897,16.4335978 C22.3273897,19.6358003 20.2835695,21.8018479 18.5707978,23.0557163 C18.3356323,23.2260569 17.5625131,23.7753803 16.5168846,24.5162109 L7.26165945,30.9317032 C3.51717902,33.515035 1.19176584,37.8874475 1.19176584,42.3415026 C1.19176584,49.8737844 7.32726355,56 14.869717,56 C22.4101518,56 28.5446402,49.8737844 28.5446402,42.3415026 C28.5446402,39.8811386 27.8997014,37.4973775 26.6794651,35.4512739 C25.4662938,33.4162576 24.2682619,32.2934204 23.0994996,31.3389081 C21.2716683,32.5625385 19.5235712,33.7307326 17.9632028,34.7689034 C21.0082426,36.8694354 22.5918247,39.4749417 22.5191556,42.3283994 C22.4111611,46.6211853 19.0512217,49.9836491 14.869717,49.9836491 C10.6498591,49.9836491 7.21725052,46.5556696 7.21725052,42.3415026 C7.21725052,39.8730751 8.595946,37.3260289 10.728584,35.854447 L19.9060936,29.4853196 L21.2343244,28.5600373" id="Fill-9" fill="#828382"></path>
    </g>
</svg>